<?xml version="1.0" encoding="UTF-8" standalone="no"?>
<!-- Created with Inkscape (http://www.inkscape.org/) -->

<svg
   width="72.97998mm"
   height="72.98008mm"
   viewBox="0 0 72.97998 72.98008"
   version="1.1"
   id="svg5"
   inkscape:version="1.1.1 (3bf5ae0d25, 2021-09-20)"
   sodipodi:docname="telegram-chat.svg"
   xmlns:inkscape="http://www.inkscape.org/namespaces/inkscape"
   xmlns:sodipodi="http://sodipodi.sourceforge.net/DTD/sodipodi-0.dtd"
   xmlns="http://www.w3.org/2000/svg"
   xmlns:svg="http://www.w3.org/2000/svg">
  <sodipodi:namedview
     id="namedview7"
     pagecolor="#ffffff"
     bordercolor="#666666"
     borderopacity="1.0"
     inkscape:pageshadow="2"
     inkscape:pageopacity="0.0"
     inkscape:pagecheckerboard="0"
     inkscape:document-units="mm"
     showgrid="false"
     fit-margin-top="0"
     fit-margin-left="0"
     fit-margin-right="0"
     fit-margin-bottom="0"
     inkscape:zoom="1.4930696"
     inkscape:cx="139.98008"
     inkscape:cy="132.27783"
     inkscape:window-width="1920"
     inkscape:window-height="1001"
     inkscape:window-x="-9"
     inkscape:window-y="-9"
     inkscape:window-maximized="1"
     inkscape:current-layer="layer1" />
  <defs
     id="defs2" />
  <g
     inkscape:label="Layer 1"
     inkscape:groupmode="layer"
     id="layer1"
     transform="translate(-131.85731,-70.18896)">
    <g
       style="fill:#26a5e4"
       id="g835"
       transform="matrix(3.0408325,0,0,3.0408325,131.85731,70.189059)">
      <path
         d="M 11.944,0 A 12,12 0 0 0 0,12 12,12 0 0 0 12,24 12,12 0 0 0 24,12 12,12 0 0 0 12,0 12,12 0 0 0 11.944,0 Z m 4.962,7.224 c 0.1,-0.002 0.321,0.023 0.465,0.14 a 0.506,0.506 0 0 1 0.171,0.325 c 0.016,0.093 0.036,0.306 0.02,0.472 -0.18,1.898 -0.962,6.502 -1.36,8.627 -0.168,0.9 -0.499,1.201 -0.82,1.23 -0.696,0.065 -1.225,-0.46 -1.9,-0.902 -1.056,-0.693 -1.653,-1.124 -2.678,-1.8 -1.185,-0.78 -0.417,-1.21 0.258,-1.91 0.177,-0.184 3.247,-2.977 3.307,-3.23 0.007,-0.032 0.014,-0.15 -0.056,-0.212 -0.07,-0.062 -0.174,-0.041 -0.249,-0.024 -0.106,0.024 -1.793,1.14 -5.061,3.345 -0.48,0.33 -0.913,0.49 -1.302,0.48 C 7.273,13.757 6.449,13.524 5.836,13.325 5.084,13.08 4.487,12.951 4.539,12.536 4.566,12.32 4.864,12.099 5.432,11.873 8.93,10.349 11.262,9.344 12.43,8.859 15.762,7.473 16.455,7.232 16.906,7.224 Z"
         id="path826" />
    </g>
    <g
       id="g5626"
       transform="matrix(1.04936,0,0,1.04936,167.08309,105.76636)">
      <g
         id="g5570">
	<g
   id="bubble">
		<path
   style="fill:#010002"
   d="M 16,7 C 10.037,7 5,10.206 5,14 5,14.276 5.224,14.5 5.5,14.5 5.776,14.5 6,14.276 6,14 6,10.804 10.673,8 16,8 16.275,8 16.5,7.776 16.5,7.5 16.5,7.224 16.276,7 16,7 Z"
   id="path5565" />

		<path
   style="fill:#010002"
   d="M 16,2 C 7.163,2 0,7.373 0,14 0,18.127 2.779,21.766 7.008,23.926 7.008,23.953 7,23.971 7,24 c 0,1.793 -1.339,3.723 -1.928,4.736 0.001,0 0.002,0 0.002,0 C 5.027,28.846 5,28.967 5,29.094 5,29.594 5.405,30 5.906,30 6,30 6.165,29.975 6.161,29.986 9.286,29.474 12.23,26.603 12.914,25.771 13.913,25.918 14.943,26 16,26 24.835,26 32,20.627 32,14 32,7.373 24.836,2 16,2 Z m 0,22 c -0.917,0 -1.858,-0.07 -2.796,-0.207 -0.097,-0.016 -0.194,-0.021 -0.29,-0.021 -0.594,0 -1.163,0.264 -1.546,0.73 -0.428,0.521 -1.646,1.684 -3.085,2.539 0.39,-0.895 0.695,-1.898 0.716,-2.932 0.006,-0.064 0.009,-0.129 0.009,-0.184 0,-0.752 -0.421,-1.439 -1.09,-1.781 C 4.212,20.252 2,17.207 2,14 2,8.486 8.28,4 16,4 c 7.718,0 14,4.486 14,10 0,5.514 -6.281,10 -14,10 z"
   id="path5567" />

	</g>

</g>
      <g
         id="g5572">
</g>
      <g
         id="g5574">
</g>
      <g
         id="g5576">
</g>
      <g
         id="g5578">
</g>
      <g
         id="g5580">
</g>
      <g
         id="g5582">
</g>
      <g
         id="g5584">
</g>
      <g
         id="g5586">
</g>
      <g
         id="g5588">
</g>
      <g
         id="g5590">
</g>
      <g
         id="g5592">
</g>
      <g
         id="g5594">
</g>
      <g
         id="g5596">
</g>
      <g
         id="g5598">
</g>
      <g
         id="g5600">
</g>
    </g>
  </g>
</svg>
