<?xml version="1.0" encoding="UTF-8" standalone="no"?>
<!-- Created with Inkscape (http://www.inkscape.org/) -->

<svg
   width="72.97998mm"
   height="72.98008mm"
   viewBox="0 0 72.97998 72.98008"
   version="1.1"
   id="svg5"
   inkscape:version="1.1.1 (3bf5ae0d25, 2021-09-20)"
   sodipodi:docname="telegram-info.svg"
   xmlns:inkscape="http://www.inkscape.org/namespaces/inkscape"
   xmlns:sodipodi="http://sodipodi.sourceforge.net/DTD/sodipodi-0.dtd"
   xmlns="http://www.w3.org/2000/svg"
   xmlns:svg="http://www.w3.org/2000/svg">
  <sodipodi:namedview
     id="namedview7"
     pagecolor="#ffffff"
     bordercolor="#666666"
     borderopacity="1.0"
     inkscape:pageshadow="2"
     inkscape:pageopacity="0.0"
     inkscape:pagecheckerboard="0"
     inkscape:document-units="mm"
     showgrid="false"
     fit-margin-top="0"
     fit-margin-left="0"
     fit-margin-right="0"
     fit-margin-bottom="0"
     inkscape:zoom="1.4930696"
     inkscape:cx="139.98008"
     inkscape:cy="132.27783"
     inkscape:window-width="1920"
     inkscape:window-height="1001"
     inkscape:window-x="-9"
     inkscape:window-y="-9"
     inkscape:window-maximized="1"
     inkscape:current-layer="layer1" />
  <defs
     id="defs2" />
  <g
     inkscape:label="Layer 1"
     inkscape:groupmode="layer"
     id="layer1"
     transform="translate(-131.85731,-70.18896)">
    <g
       style="fill:#26a5e4"
       id="g835"
       transform="matrix(3.0408325,0,0,3.0408325,131.85731,70.189059)">
      <path
         d="M 11.944,0 A 12,12 0 0 0 0,12 12,12 0 0 0 12,24 12,12 0 0 0 24,12 12,12 0 0 0 12,0 12,12 0 0 0 11.944,0 Z m 4.962,7.224 c 0.1,-0.002 0.321,0.023 0.465,0.14 a 0.506,0.506 0 0 1 0.171,0.325 c 0.016,0.093 0.036,0.306 0.02,0.472 -0.18,1.898 -0.962,6.502 -1.36,8.627 -0.168,0.9 -0.499,1.201 -0.82,1.23 -0.696,0.065 -1.225,-0.46 -1.9,-0.902 -1.056,-0.693 -1.653,-1.124 -2.678,-1.8 -1.185,-0.78 -0.417,-1.21 0.258,-1.91 0.177,-0.184 3.247,-2.977 3.307,-3.23 0.007,-0.032 0.014,-0.15 -0.056,-0.212 -0.07,-0.062 -0.174,-0.041 -0.249,-0.024 -0.106,0.024 -1.793,1.14 -5.061,3.345 -0.48,0.33 -0.913,0.49 -1.302,0.48 C 7.273,13.757 6.449,13.524 5.836,13.325 5.084,13.08 4.487,12.951 4.539,12.536 4.566,12.32 4.864,12.099 5.432,11.873 8.93,10.349 11.262,9.344 12.43,8.859 15.762,7.473 16.455,7.232 16.906,7.224 Z"
         id="path826" />
    </g>
    <path
       d="m 196.36737,116.54982 q 0.93063,0 1.58909,0.65846 0.65846,0.65846 0.65846,1.58908 0,0.93063 -0.65846,1.58909 -0.65846,0.65846 -1.58909,0.65846 v 6.74265 q 0,0.91306 -0.66724,1.5803 -0.66724,0.66724 -1.58031,0.66724 -7.32209,-6.09296 -14.25788,-6.67241 -1.01842,0.33362 -1.59786,1.1589 -0.57945,0.82527 -0.54433,1.76467 0.0351,0.93941 0.70236,1.62421 -0.35118,0.57944 -0.40386,1.15011 -0.0527,0.57067 0.10535,1.01842 0.15803,0.44775 0.58823,0.96575 0.43019,0.51798 0.84283,0.87794 0.41264,0.35996 1.07987,0.88673 -0.5092,1.01842 -1.95782,1.45739 -1.44861,0.43898 -2.95869,0.20193 -1.51007,-0.23704 -2.31778,-0.97452 -0.12291,-0.40386 -0.51799,-1.53641 -0.39508,-1.13255 -0.56189,-1.65932 -0.1668,-0.52677 -0.40385,-1.56275 -0.23705,-1.03598 -0.26339,-1.77346 -0.0263,-0.73747 0.0615,-1.72955 0.0878,-0.99209 0.3863,-1.94027 h -2.1422 q -1.15889,0 -1.98416,-0.82527 -0.82527,-0.82527 -0.82527,-1.98417 v -3.37132 q 0,-1.15889 0.82527,-1.98416 0.82527,-0.82527 1.98416,-0.82527 h 8.42831 q 7.63815,0 15.73283,-6.74265 0.91307,0 1.58031,0.66725 0.66724,0.66724 0.66724,1.5803 z m -2.24755,10.60561 v -16.75125 q -6.91823,5.30281 -13.48529,6.02272 v 4.74092 q 6.61974,0.73748 13.48529,5.98761 z"
       id="path3017"
       inkscape:connector-curvature="0"
       style="fill:currentColor;stroke-width:0.0175589" />
  </g>
</svg>
